<?xml version="1.0" encoding="iso-8859-1"?>
<!-- Generator: Adobe Illustrator 19.0.0, SVG Export Plug-In . SVG Version: 6.00 Build 0)  -->
<svg version="1.1" id="Capa_1" xmlns="http://www.w3.org/2000/svg" xmlns:xlink="http://www.w3.org/1999/xlink" x="0px" y="0px"
	 viewBox="0 0 511.307 511.307" style="enable-background:new 0 0 511.307 511.307;" xml:space="preserve">
<path style="fill:#FFD15C;" d="M345.372,391.84c0,0-2.133,16,0,19.2c2.133,2.133,3.2,7.467,4.267,10.667c0,2.133,0,4.267,0,6.4
	c-2.133,5.333-5.333,17.067-6.4,19.2c-1.067,2.133-10.667,10.667-10.667,10.667l-7.467,3.2c0,0-4.267-5.333,4.267-9.6
	c0,0,2.133-5.333,4.267-5.333c0,0,0-7.467,0-9.6l-1.067-7.467l-6.4-1.067c0,0,1.067,20.267-8.533,20.267v-10.667
	c0,0,1.067-18.133,3.2-23.467s3.2-21.333,3.2-21.333L345.372,391.84z"/>
<g>
	<path style="fill:#425A6B;" d="M321.905,416.374l-7.467,94.933H182.172c0,0,3.2-30.933,2.133-38.4
		c-1.067-7.467-17.067-58.667,22.4-83.2s110.933-29.867,110.933-29.867L321.905,416.374z"/>
	<path style="fill:#425A6B;" d="M310.172,139.04c0,0,10.667,9.6,12.8,24.533c2.133,14.933,5.333,50.133,7.467,55.467
		c1.067,5.333,6.4,72.533,6.4,72.533s11.733,69.333,13.867,76.8c2.133,7.467,1.067,26.667,1.067,26.667h-29.867l-10.667-54.4
		l-13.867-121.6C297.372,219.04,302.705,144.374,310.172,139.04z"/>
</g>
<path style="fill:#FFD15C;" d="M222.705,91.04v14.933l52.267,36.267c0,0,1.067-23.467,1.067-27.733c0-3.2,0-5.333,0-5.333
	s13.867-12.8,16-42.667c1.067-30.933,1.067-30.933,1.067-30.933s-6.4-11.733-20.267-14.933c-14.933-3.2-35.2-3.2-35.2-3.2
	l-18.133,13.867C218.439,31.307,219.505,86.774,222.705,91.04z"/>
<path style="fill:#F5B54C;" d="M276.039,114.507c0-3.2,0-5.333,0-5.333s-6.4,8.533-26.667,4.267s-26.667-28.8-27.733-33.067
	c0,0,1.067,16,11.733,33.067l41.6,28.8C274.972,142.24,274.972,118.774,276.039,114.507z"/>
<path style="fill:#CED6E0;" d="M248.305,130.507l-24.533,1.067c0,0,21.333,54.4,22.4,57.6c0,4.267,61.867,80,62.933,82.133
	c1.067,1.067,3.2-1.067,4.267-16c1.067-14.933-21.333-107.733-21.333-107.733l-7.467-18.133l-13.867,8.533h-2.133L248.305,130.507z"
	/>
<ellipse style="fill:#344A5E;" cx="214.172" cy="192.374" rx="21.333" ry="37.333"/>
<path style="fill:#425A6B;" d="M194.972,134.774c0,0-14.933-2.133-20.267,0c-5.333,2.133-13.867,13.867-13.867,19.2
	c-1.067,5.333,1.067,24.533,4.267,33.067c3.2,8.533,4.267,8.533,2.133,12.8c-2.133,4.267-5.333,18.133-3.2,24.533
	c0,0-5.333,11.733-3.2,22.4s9.6,16,12.8,18.133c3.2,2.133,28.8,10.667,28.8,10.667s-2.133-21.333,0-29.867
	c2.133-8.533,11.733-20.267,21.333-18.133c0,0-11.733-3.2-12.8-4.267c-1.067-1.067,3.2,0,3.2-4.267c0-3.2,0-13.867,2.133-20.267
	s4.267-17.067,4.267-17.067l1.067-32L194.972,134.774z"/>
<path style="fill:#344A5E;" d="M314.439,369.44c0,0-2.133,53.333-16,64c-12.8,11.733-50.133,14.933-80,12.8
	c-29.867-3.2-41.6-9.6-41.6-9.6s7.467-67.2,12.8-93.867c5.333-26.667,6.4-102.4,6.4-102.4s25.6-39.467,24.533-52.267
	c-1.067-12.8-18.133-55.467-46.933-52.267c0,0,21.333-5.333,26.667-8.533c5.333-3.2,10.667-5.333,10.667-5.333h12.8l33.067,32
	l45.867,84.267l7.467,14.933C309.105,252.107,315.505,326.774,314.439,369.44z"/>
<path style="fill:#E8EAE8;" d="M198.172,270.24c0,0,50.133,8.533,25.6-42.667c0,0-17.067-4.267-23.467,3.2
	C194.972,238.24,182.172,261.707,198.172,270.24z"/>
<path style="fill:#FFD15C;" d="M214.172,227.574c0,0,8.533,2.133,9.6,2.133c0,0-1.067-7.467,3.2-11.733s7.467-7.467,8.533-9.6
	c1.067-2.133,4.267-11.733,4.267-16s6.4-4.267,8.533-1.067c1.067,4.267,2.133,9.6,2.133,11.733c0,2.133-2.133,8.533-2.133,8.533
	l2.133,8.533l-2.133,43.733c0,0-4.267,4.267-8.533,4.267s-12.8-5.333-13.867-6.4c0-1.067-19.2,1.067-28.8-2.133
	C188.572,257.44,196.039,229.707,214.172,227.574z"/>
<path style="fill:#344A5E;" d="M286.705,129.44c0,0,11.733,6.4,18.133,7.467c7.467,1.067,13.867,18.133,14.933,26.667
	c1.067,8.533,3.2,45.867,3.2,45.867s0,106.667,2.133,115.2c2.133,8.533-2.133,109.867-2.133,109.867s-2.133,4.267-3.2,0
	c-2.133-4.267-3.2-49.067-4.267-58.667c-1.067-9.6-8.533-90.667-8.533-90.667s5.333-54.4,3.2-59.733
	c-2.133-6.4-21.333-84.267-21.333-84.267L286.705,129.44z"/>
<path style="fill:#425A6B;" d="M288.839,137.974l13.867,10.667c0,0,7.467,36.267,8.533,49.067v1.067
	c1.067,24.533,1.067,49.067-2.133,72.533c-1.067,6.4-1.067,11.733-1.067,13.867l0,0c-1.067-33.067-4.267-65.067-11.733-97.067
	l-6.4-29.867L288.839,137.974z"/>
<path style="fill:#E8EAE8;" d="M288.839,129.44c0,0,3.2,1.067,3.2,6.4c0,5.333-3.2,22.4-3.2,22.4l-12.8-23.467
	C276.039,134.774,286.705,129.44,288.839,129.44z"/>
<g>
	<path style="fill:#F3F3F3;" d="M222.705,99.574c0,0,5.333,7.467,10.667,10.667c5.333,3.2,37.333,27.733,37.333,27.733
		l-11.733,20.267l-41.6-42.667L222.705,99.574z"/>
	<polygon style="fill:#F3F3F3;" points="276.039,112.374 270.705,137.974 288.839,129.44 	"/>
</g>
<g>
	<path style="fill:#425A6B;" d="M220.572,105.974c0,0-3.2,2.133-4.267,6.4c-1.067,4.267-5.333,8.533-5.333,8.533l11.733,18.133
		l12.8,1.067l-2.133,10.667c0,0,22.4,26.667,34.133,39.467c11.733,12.8,34.133,39.467,36.267,48c0,0-9.6-24.533-13.867-35.2
		c-2.133-4.267-5.333-10.667-7.467-17.067c-7.467-14.933-16-29.867-26.667-42.667c-7.467-9.6-16-20.267-20.267-23.467
		C224.839,111.307,219.505,110.24,220.572,105.974z"/>
	<path style="fill:#425A6B;" d="M214.172,220.107c0-3.2,0-13.867,2.133-20.267c0-1.067,1.067-2.133,1.067-4.267h-50.133
		c0,1.067,0,2.133-1.067,3.2c-2.133,4.267-5.333,18.133-3.2,24.533c0,0-5.333,11.733-3.2,22.4c2.133,10.667,9.6,16,12.8,18.133
		s28.8,10.667,28.8,10.667s-2.133-21.333,0-29.867c2.133-8.533,11.733-20.267,21.333-18.133c0,0-11.733-3.2-12.8-4.267
		C209.905,222.24,214.172,223.307,214.172,220.107z"/>
</g>
<path style="fill:#FFD15C;" d="M225.905,221.174c0,0,7.467-1.067,13.867-1.067s14.933,2.133,17.067,3.2
	c2.133,1.067,3.2,5.333,2.133,8.533c0,2.133-1.067,2.133-1.067,2.133s3.2,2.133,3.2,6.4s-2.133,4.267-2.133,4.267
	s2.133,1.067,2.133,5.333c0,4.267-3.2,4.267-3.2,4.267s2.133,2.133,1.067,5.333c-1.067,3.2-4.267,5.333-4.267,5.333
	s-10.667,3.2-13.867,3.2c-3.2,0-8.533-5.333-8.533-5.333L225.905,221.174z"/>
<g>
	<path style="fill:#F5B54C;" d="M257.905,233.974c0,0-1.067,0-2.133,0s-1.067,0-2.133,0c-1.067,0-2.133,0-2.133,0h-1.067h-1.067
		c-1.067,0-1.067,0-2.133,0c-1.067,0-2.133,0-2.133,0s1.067,0,2.133,0c1.067,0,1.067,0,2.133,0s2.133,0,2.133,0
		c1.067,0,2.133,0,2.133,0c1.067,0,1.067,0,2.133,0S257.905,233.974,257.905,233.974z"/>
	<path style="fill:#F5B54C;" d="M258.972,244.64c0,0-1.067,0-2.133,0c-1.067,0-1.067,0-2.133,0h-1.067h-1.067
		c-1.067,0-1.067,0-2.133,0s-1.067,0-2.133,0c-1.067,0-1.067,0-1.067,0l0,0c0,0,1.067,0,2.133,0c1.067,0,1.067,0,2.133,0h1.067
		h1.067c1.067,0,1.067,0,2.133,0c1.067,0,1.067,0,2.133,0C257.905,244.64,258.972,244.64,258.972,244.64z"/>
	<path style="fill:#F5B54C;" d="M257.905,254.24c0,0-1.067,0-2.133,0s-1.067,0-2.133,0c-1.067,0-1.067,0-2.133,0
		c-1.067,0-2.133,0-2.133,0c-1.067,0-1.067,0-2.133,0c-1.067,0-1.067,0-1.067,0h-1.067c0,0,0,0,1.067,0c0,0,0,0,1.067,0
		c0,0,0,0,1.067,0c1.067,0,1.067,0,2.133,0h1.067h1.067c1.067,0,2.133,0,2.133,0c1.067,0,1.067,0,2.133,0H257.905z"/>
</g>
<path style="fill:#344A5E;" d="M266.439,511.307h13.867l4.267-64c0,0,0,2.133-4.267,17.067
	C276.039,475.04,271.772,497.44,266.439,511.307z"/>
<path style="fill:#425A6B;" d="M222.705,91.04c0,0-4.267-22.4-3.2-27.733c0,0,4.267,3.2,4.267,7.467h2.133
	c0,0-3.2-18.133,4.267-23.467c7.467-5.333-3.2-6.4-1.067-13.867c3.2-6.4,8.533-10.667,25.6-10.667
	c17.067-1.067,29.867,6.4,33.067,9.6c3.2,3.2,4.267,29.867,4.267,34.133c0,0,5.333-9.6,3.2-24.533
	c-2.133-16-7.467-25.6-13.867-30.933c-5.333-5.333-26.667-12.8-35.2-10.667c-8.533,1.067-22.4,8.533-26.667,16
	s-8.533,25.6-7.467,35.2C214.172,61.174,218.439,87.84,222.705,91.04z"/>
<path style="fill:#FFD15C;" d="M223.772,71.84c1.067,7.467,0,13.867-3.2,13.867c-3.2,0-7.467-6.4-8.533-13.867
	c-1.067-7.467,0-13.867,3.2-13.867C217.372,56.907,221.639,64.374,223.772,71.84z"/>
<g>
</g>
<g>
</g>
<g>
</g>
<g>
</g>
<g>
</g>
<g>
</g>
<g>
</g>
<g>
</g>
<g>
</g>
<g>
</g>
<g>
</g>
<g>
</g>
<g>
</g>
<g>
</g>
<g>
</g>
</svg>
